<svg xmlns="http://www.w3.org/2000/svg" width="380" height="49" viewBox="0 0 380 49">
  <g fill="#134B5F" fill-rule="evenodd">
    <path d="M.711886444 47.3805522L.356158978 47.3805522.356158978 26.8511128.711886444 26.8511128C.711886444 32.7846686 3.73813201 38.539956 7.95076508 42.3965919 11.2731356 45.4819006 15.3673726 47.3805522 19.3426742 47.3805522 25.5132917 47.3805522 27.1152789 42.337259 27.1152789 39.1926175 27.1152789 32.9623974 20.7663932 31.2417445 16.910027 30.173753L13.4687211 29.2246969C7.1791682 27.504044-.000107877928 24.0624684-.000107877928 15.5185366-.000107877928 13.2638879.593490419 10.8905735 1.77987793 8.81392335 4.03452661 4.83862172 11.392071.388657204 17.7997502.388657204 20.5886643.388657204 22.3686501.922652945 23.8519716 1.51571185 25.6319574 2.22797587 27.0559461 2.93997019 29.3699276 2.93997019 31.2092463 2.93997019 33.0485649 2.64330589 33.2268332.269721789L33.6421632.269721789 33.6421632 17.2985224 33.2858964 17.2985224C33.2858964 13.619885 32.158572 10.1785791 28.361269 5.6099489 25.394626 1.99064443 21.5970532.803987225 18.3933485.803987225 15.9010987.803987225 14.0620497 1.39731583 12.3413967 3.88929595 11.6884656 4.89795458 11.392071 6.38127608 11.392071 7.74593187 11.392071 14.8065422 18.4526813 16.0525323 20.70733 16.586528L23.4957048 17.2391895C27.0559461 18.0698495 38.0325252 20.0871668 38.0325252 31.5977417 38.0325252 35.3359815 36.6678694 39.370616 33.2858964 42.5745905 29.191929 46.4905593 25.809956 47.855215 20.4106657 47.855215 13.4093882 47.855215 7.1791682 44.6512406 4.09385947 44.6512406 2.61053797 44.6512406 1.30521505 45.2445692.711886444 47.3805522M51.3228701 35.8697885C51.1448715 37.0564457 51.0855387 38.065374 51.0855387 39.0144301 51.0855387 40.3793556 51.2044741 41.6250759 51.3228701 43.0490646 51.3824727 44.2359915 51.5008687 46.4906402 52.9841902 46.4906402 53.3995202 46.4906402 53.8741831 46.3717048 54.1711171 46.0753101 57.5530901 43.8797246 57.6714862 38.5991001 57.6714862 34.0898027L57.6714862 26.4358637C57.4341547 27.8598524 56.4850987 28.868511 55.8915004 29.283841 52.0351341 32.1318183 51.7382001 32.5471483 51.3228701 35.8697885zM69.6567239 43.6423932C69.6567239 44.5917189 69.6567239 46.253039 70.6063194 46.253039 71.4369794 46.253039 73.4542967 44.5323861 73.6322952 38.2431029L74.0476253 38.2431029C74.0476253 39.6670916 73.6913584 45.3037133 70.9620468 46.7279716 69.5976608 47.4990291 67.8174053 47.8550263 66.1563549 47.8550263 64.9696977 47.8550263 63.9017062 47.6770277 63.0117133 47.3210305 59.6890731 46.0157076 58.6801448 44.6513215 57.7310887 41.1504131 56.4850987 45.0666515 54.7048432 46.6683691 53.0435231 47.3210305 52.1535302 47.6770277 51.0855387 47.7363605 49.7802158 47.7363605 44.7369226 47.7363605 39.5749638 46.3126416 39.5749638 39.8450901 39.5749638 38.8960341 39.7529624 37.9464386 39.9902938 37.1157786 41.2956167 32.9031455 43.9655955 32.4878155 48.0595628 31.7758211L49.4838211 31.5384897C57.3748219 30.2331668 57.7310887 26.1391994 57.7310887 22.638291 57.7310887 16.8832732 55.7135018 16.4086104 53.4588531 16.4086104 52.2131327 16.4086104 48.5342257 16.5866089 47.3475685 19.4939191 47.7035656 19.3159205 48.1782285 19.256318 48.6531611 19.256318 50.7891441 19.256318 53.6368517 20.8585749 53.6368517 24.181215 53.6368517 27.7411867 50.5518126 29.9958353 47.6442328 29.9958353 44.7369226 29.9958353 41.889215 27.6818538 41.889215 24.0625493 41.889215 19.1379219 48.0595628 15.8743449 55.4761703 15.8743449 59.0954748 15.8743449 62.9521107 16.6459418 65.5630263 18.4852605 69.4787253 21.214572 69.6567239 24.7745436 69.6567239 28.1565167L69.6567239 43.6423932z"/>
    <path d="M92.0246728 18.1884613C90.3040199 20.1467154 90.0666884 22.579093 90.0666884 26.376396L90.0666884 41.2692136C90.0666884 45.6598453 90.4226856 47.0838339 95.0506487 47.0838339L95.0506487 47.4398311 73.0381576 47.4398311 73.0381576 47.0838339C77.6661207 47.0838339 78.0814507 45.6598453 78.0814507 41.2692136L78.0814507 22.2826984C78.0814507 17.891797 77.6661207 16.645807 73.0381576 16.645807L73.0381576 16.2304769 89.5326927 16.2304769 89.5326927 22.4010944C90.3633527 19.0787239 92.2026714 15.8744798 96.5930334 15.8744798 100.746603 15.8744798 102.704588 19.1971199 102.704588 22.7570916 102.704588 26.5546643 100.153275 28.9873116 97.0083634 28.9873116 94.1013229 28.9873116 91.4906771 26.9699943 91.4906771 23.409753 91.4906771 20.2057786 93.7453258 17.9511299 97.0679659 17.9511299 98.3732889 17.9511299 99.6192789 18.3664599 100.627938 19.1971199 100.390606 16.5867438 97.7799603 16.2898098 96.8306345 16.2898098 94.8133172 16.2898098 93.0333314 17.0020738 92.0246728 18.1884613M115.341947 35.8697885C115.163949 37.0564457 115.104616 38.065374 115.104616 39.0144301 115.104616 40.3793556 115.223551 41.6250759 115.341947 43.0490646 115.40155 44.2359915 115.519946 46.4906402 117.003268 46.4906402 117.418598 46.4906402 117.89326 46.3717048 118.190194 46.0753101 121.572167 43.8797246 121.690564 38.5991001 121.690564 34.0898027L121.690564 26.4358637C121.453232 27.8598524 120.504176 28.868511 119.910578 29.283841 116.054211 32.1318183 115.757278 32.5471483 115.341947 35.8697885zM133.675801 43.6423932C133.675801 44.5917189 133.675801 46.253039 134.625397 46.253039 135.456057 46.253039 137.473374 44.5323861 137.651373 38.2431029L138.066703 38.2431029C138.066703 39.6670916 137.710436 45.3037133 134.981124 46.7279716 133.616738 47.4990291 131.836483 47.8550263 130.175432 47.8550263 128.988775 47.8550263 127.920784 47.6770277 127.030791 47.3210305 123.70815 46.0157076 122.699222 44.6513215 121.750166 41.1504131 120.504176 45.0666515 118.723921 46.6683691 117.0626 47.3210305 116.172608 47.6770277 115.104616 47.7363605 113.799293 47.7363605 108.756 47.7363605 103.594041 46.3126416 103.594041 39.8450901 103.594041 38.8960341 103.77204 37.9464386 104.009371 37.1157786 105.314694 32.9031455 107.984673 32.4878155 112.07864 31.7758211L113.502899 31.5384897C121.393899 30.2331668 121.750166 26.1391994 121.750166 22.638291 121.750166 16.8832732 119.732579 16.4086104 117.47793 16.4086104 116.23194 16.4086104 112.553303 16.5866089 111.366646 19.4939191 111.722643 19.3159205 112.197306 19.256318 112.672238 19.256318 114.808221 19.256318 117.655929 20.8585749 117.655929 24.181215 117.655929 27.7411867 114.57089 29.9958353 111.66331 29.9958353 108.756 29.9958353 105.908292 27.6818538 105.908292 24.0625493 105.908292 19.1379219 112.07864 15.8743449 119.495248 15.8743449 123.114552 15.8743449 126.971188 16.6459418 129.582104 18.4852605 133.497803 21.214572 133.675801 24.7745436 133.675801 28.1565167L133.675801 43.6423932z"/>
    <path d="M137.057127,1.99069837 L154.026325,1.99069837 L154.026325,21.2145451 C155.034984,18.4852335 157.348965,15.874318 162.333195,15.874318 C164.824906,15.874318 167.910214,16.5269794 169.868199,18.1292363 C172.479114,20.383885 172.894444,22.519868 172.894444,25.4271781 L172.894444,41.2693215 C172.894444,45.8972846 173.42817,47.0836721 177.937737,47.0836721 L177.937737,47.439939 L158.416957,47.439939 L158.416957,47.0836721 C160.790271,47.0836721 161.027603,45.422352 161.027603,41.1503861 L161.027603,23.4691938 C161.027603,20.383885 160.55294,17.7139063 158.179625,17.7139063 C157.586297,17.7139063 157.170967,17.8919049 156.637241,18.2479021 C154.204324,19.9092221 154.026325,23.0538637 154.026325,27.0887679 L154.026325,41.1503861 C154.026325,45.422352 154.263656,47.0836721 156.637241,47.0836721 L156.637241,47.439939 L137.057127,47.439939 L137.057127,47.0836721 C141.447759,47.0836721 142.10042,45.8972846 142.10042,41.2693215 L142.10042,8.04238041 C142.10042,3.65174876 141.68509,2.34642583 137.057127,2.34642583 L137.057127,1.99069837 Z"/>
    <path d="M200.721151 22.875973C204.518454 22.875973 206.71404 22.460643 207.782031 19.197066 207.96003 18.5444045 208.138028 16.4086913 208.138028 13.9757743 208.138028 10.0007424 207.782031 5.07584528 206.654707 3.59252378 205.171385 1.51587367 203.035133 1.33787509 200.187425 1.33787509L198.110505 1.33787509 198.110505 22.875973 200.721151 22.875973zM222.674309 45.3037942C224.810562 45.3037942 226.175218 41.0318282 226.175218 35.3358737 226.175218 34.5052136 226.115885 33.7338864 225.997219 33.081225L226.412549 33.081225C226.531215 33.614951 226.590548 34.4456111 226.590548 35.3952065 226.590548 35.4545394 226.590548 40.4978325 225.285225 43.3458098 224.454565 45.1851285 223.089639 48.0331057 216.859959 48.0331057 214.427042 48.0331057 211.816666 47.4397771 209.62135 45.8377899 207.485097 44.2358027 206.832436 41.4471583 206.832436 37.7685209 206.832436 36.2258666 207.12937 32.4285635 207.12937 30.4705791 207.12937 23.7659659 204.874451 23.2317005 200.661818 23.2317005L198.110505 23.2317005 198.110505 40.2011682C198.110505 45.3037942 198.882102 47.08378 203.747397 47.08378L204.459121 47.08378 204.459121 47.4397771 177.403337 47.4397771 177.403337 47.08378 177.818667 47.08378C184.10795 47.08378 184.463947 45.3037942 184.463947 40.2011682L184.463947 8.22048687C184.463947 3.11786089 184.10795 1.33787509 177.818667 1.33787509L177.403337 1.33787509 177.403337.981877928 200.89915.981877928C205.942443.981877928 215.376637 1.15987651 219.707666 7.2714308 220.83526 8.81381547 221.309923 10.5344684 221.309923 12.1957885 221.309923 13.1451143 221.131925 14.09444 220.83526 14.9253698 218.580612 20.9177189 211.460399 22.163709 207.782031 23.1726373 210.155076 23.7659659 214.308646 24.4776906 217.156353 26.4356749 220.775928 28.9276551 221.072592 33.081225 221.072592 36.5225309L221.072592 42.2778183C221.072592 44.2951356 221.369256 45.3037942 222.674309 45.3037942zM239.938581 29.4023719L239.938581 31.1232945 246.880525 31.1232945C246.999461 28.809313 247.058524 25.7237346 247.058524 23.5286884 247.058524 20.3840468 246.999461 18.0104627 245.278538 16.5271412 245.041207 16.2898098 244.566544 16.2304769 243.973215 16.2304769 240.591242 16.2304769 239.938581 20.3244443 239.938581 29.4023719zM239.938581 31.5386246L239.938581 35.157929C239.938581 42.6932023 241.303506 47.2024996 246.761859 47.2024996 253.110745 47.2024996 256.73005 40.4385536 257.382711 34.445665L257.798041 34.445665C257.441774 37.5312434 256.195784 43.4051966 251.271427 46.3718396 249.609837 47.3804982 247.117857 47.7958282 244.566544 47.7958282 231.275983 47.7958282 227.953343 38.5399021 227.953343 32.6659489 227.953343 28.393983 229.55533 23.8844159 233.70863 19.8497814 236.675273 17.0020738 240.591242 15.8744798 244.091881 15.8744798 251.805153 15.8744798 255.187126 20.3840468 256.908048 24.8340114 257.679106 26.9697246 257.738439 28.9873116 257.738439 31.5386246L239.938581 31.5386246zM277.258114 45.1850745C277.792109 45.1850745 278.326105 45.0070759 278.623039 44.7697445 281.115019 43.168027 281.352351 39.4891199 281.352351 33.4371682L281.352351 22.2825905C281.352351 18.4256849 280.699689 16.7050319 277.436112 16.6459688L277.436112 16.2306388 293.337319 16.2306388 293.337319 41.2691057C293.337319 45.6600071 293.752649 47.083726 298.380612 47.083726L298.380612 47.4397232 281.233415 47.4397232 281.233415 41.56577C279.691031 45.6600071 277.080115 47.7959901 272.570818 47.7959901 270.494167 47.7959901 267.942855 47.2023918 266.103536 45.8973385 263.255559 43.8797516 263.018227 41.5064372 263.018227 36.2258126L263.018227 22.2825905C263.018227 17.8919588 262.602897 16.6459688 257.974934 16.6459688L257.974934 16.2306388 275.003735 16.2306388 275.003735 38.480731C275.003735 42.7524273 275.122131 45.1850745 277.258114 45.1850745M301.64311 38.243049L301.64311 16.6458879 298.558071 16.6458879 298.558071 16.2305578C302.47377 16.0525593 305.559348 14.6879035 308.229057 12.8485848 310.127709 11.5432619 312.857021 9.22928034 313.272351 4.89771185L313.628348 4.89771185 313.628348 16.2305578 319.027908 16.2305578 319.027908 16.6458879 313.628348 16.6458879 313.628348 39.9043691C313.628348 45.006995 313.865679 45.4819276 314.993273 45.4819276 315.467936 45.4819276 316.476595 45.303929 317.366588 43.1083435 317.900314 41.8030206 318.375246 38.7770447 318.375246 35.9290674L318.790576 35.9290674C318.790576 37.7683861 318.552975 39.6670376 318.197248 41.4472931 317.722315 43.8206075 316.832322 47.7363066 310.009313 47.7363066 302.948433 47.7363066 301.64311 44.8292661 301.64311 38.243049M332.139715 29.4023719L332.139715 31.1232945 339.081659 31.1232945C339.200595 28.809313 339.259658 25.7237346 339.259658 23.5286884 339.259658 20.3840468 339.200595 18.0104627 337.479672 16.5271412 337.242341 16.2898098 336.767678 16.2304769 336.174349 16.2304769 332.792376 16.2304769 332.139715 20.3244443 332.139715 29.4023719zM332.139715 31.5386246L332.139715 35.157929C332.139715 42.6932023 333.50464 47.2024996 338.962994 47.2024996 345.311879 47.2024996 348.931184 40.4385536 349.583845 34.445665L349.999175 34.445665C349.642908 37.5312434 348.396918 43.4051966 343.472561 46.3718396 341.810971 47.3804982 339.318991 47.7958282 336.767678 47.7958282 323.477117 47.7958282 320.154477 38.5399021 320.154477 32.6659489 320.154477 28.393983 321.756464 23.8844159 325.909764 19.8497814 328.876407 17.0020738 332.792376 15.8744798 336.293015 15.8744798 344.006287 15.8744798 347.38826 20.3840468 349.109182 24.8340114 349.88024 26.9697246 349.939573 28.9873116 349.939573 31.5386246L332.139715 31.5386246zM369.162691 18.1884613C367.442038 20.1467154 367.204707 22.579093 367.204707 26.376396L367.204707 41.2692136C367.204707 45.6598453 367.560704 47.0838339 372.188667 47.0838339L372.188667 47.4398311 350.176176 47.4398311 350.176176 47.0838339C354.804139 47.0838339 355.219469 45.6598453 355.219469 41.2692136L355.219469 22.2826984C355.219469 17.891797 354.804139 16.645807 350.176176 16.645807L350.176176 16.2304769 366.670711 16.2304769 366.670711 22.4010944C367.501371 19.0787239 369.34069 15.8744798 373.731052 15.8744798 377.884622 15.8744798 379.842606 19.1971199 379.842606 22.7570916 379.842606 26.5546643 377.291293 28.9873116 374.146382 28.9873116 371.239341 28.9873116 368.628696 26.9699943 368.628696 23.409753 368.628696 20.2057786 370.883344 17.9511299 374.205984 17.9511299 375.511307 17.9511299 376.757297 18.3664599 377.765956 19.1971199 377.528625 16.5867438 374.917979 16.2898098 373.968653 16.2898098 371.951336 16.2898098 370.17135 17.0020738 369.162691 18.1884613"/>
  </g>
</svg>
