<svg xmlns="http://www.w3.org/2000/svg" width="60" height="60" viewBox="0 0 60 60">
  <g fill="#134B5F" fill-rule="evenodd" transform="translate(-.77 -.032)">
    <path d="M12.2673538 41.3050308L12.0018154 41.3050308 12.0018154 31.8991846 12.2293538 31.8991846C13.0638154 36.2987231 17.5012 41.3050308 21.1041231 41.3050308 23.0005846 41.3050308 24.0245846 39.8638 24.0245846 38.4605692 24.0245846 36.1848769 21.9384308 35.6159538 19.7768923 34.8574923L18.7905846 34.5161077C15.9461231 33.5679538 12.4568923 32.4681077 12.4568923 28.0307231 12.4568923 22.9865692 17.0839692 21.1282615 20.3456615 21.1282615 22.8867385 21.1282615 24.6313538 22.2659538 25.9967385 22.2659538 26.6415077 22.2659538 26.9447385 21.7348769 27.0965846 21.2418L27.3619692 21.2418 27.3619692 28.2961077 27.1345846 28.2961077C26.8312 25.3758 23.5316615 21.3176462 20.4973538 21.3176462 18.3733538 21.3176462 17.8425846 23.1761077 17.8425846 24.2001077 17.8425846 25.6033385 18.8285846 26.7033385 22.0902769 27.6893385L23.1901231 28.0307231C25.8070462 28.8273385 29.3342769 29.5856462 29.3342769 34.4782615 29.3342769 38.9156462 25.6173538 41.5705692 21.5593538 41.5705692 18.3733538 41.5705692 15.3015077 39.9396462 14.1258154 39.9396462 13.4052 39.9396462 12.8741231 40.3188769 12.2673538 41.3050308M42.6010308 22.6071538C41.5011846 23.8588462 41.3493385 25.4137692 41.3493385 27.8411538L41.3493385 37.3605385C41.3493385 40.1673077 41.5768769 41.0774615 44.5351846 41.0774615L44.5351846 41.305 30.4644154 41.305 30.4644154 41.0774615C33.4227231 41.0774615 33.6881077 40.1673077 33.6881077 37.3605385L33.6881077 25.2240769C33.6881077 22.4176154 33.4227231 21.6211538 30.4644154 21.6211538L30.4644154 21.3556154 41.0081077 21.3556154 41.0081077 25.3000769C41.5390308 23.1760769 42.7145692 21.1282308 45.5211846 21.1282308 48.1761077 21.1282308 49.4276462 23.2519231 49.4276462 25.5276154 49.4276462 27.9548462 47.7968769 29.5097692 45.7867231 29.5097692 43.9284154 29.5097692 42.2594923 28.2202308 42.2594923 25.9446923 42.2594923 23.8966923 43.7007231 22.4556154 45.8247231 22.4556154 46.6590308 22.4556154 47.4556462 22.721 48.1002615 23.2519231 47.9485692 21.5833077 46.2798 21.3936154 45.6730308 21.3936154 44.3834923 21.3936154 43.2456462 21.8486923 42.6010308 22.6071538"/>
    <path d="M0.769230769,59.9230769 L60.6603077,59.9230769 L60.6603077,0.0321538462 L0.769230769,0.0321538462 L0.769230769,59.9230769 Z M1.846,58.8461538 L59.5833846,58.8461538 L59.5833846,1.10892308 L1.846,1.10892308 L1.846,58.8461538 Z"/>
  </g>
</svg>
